<svg width="150" height="145" xmlns="http://www.w3.org/2000/svg" xmlns:xlink="http://www.w3.org/1999/xlink">
 <defs>
  <radialGradient gradientUnits="userSpaceOnUse" gradientTransform="translate(-23.17 0.01) scale(0.97 0.99)" r="4.12" cy="70.78" cx="132.98" id="GradientFill_1">
   <stop stop-color="#f16623" offset="0"/>
   <stop offset="1"/>
  </radialGradient>
  <radialGradient xlink:href="#GradientFill_1" r="5.25" cy="71.98" cx="95.84" id="GradientFill_1-2"/>
  <radialGradient gradientUnits="userSpaceOnUse" gradientTransform="translate(-23.17 0.01) scale(0.97 0.99)" r="25.41" cy="110.7" cx="62.37" id="Blue_GradientFill_6">
   <stop stop-color="#fff" offset="0"/>
   <stop stop-color="#81d1e2" offset="1"/>
  </radialGradient>
 </defs>
 <title>autopsy-logo</title>
 <g>
  <title>Layer 1</title>
  <g id="svg_1">
   <g id="svg_2">
    <path id="svg_3" fill-rule="evenodd" fill="#2a363e" d="m35.22,5.17c0.53,10 0.37,16.57 -1.19,23.27c-4.67,20.09 -7.3,15.85 2.31,33.56l2.25,7.48l1.41,4.33l-1.12,9.5l13.21,-0.58l4.5,6.33l23.31,7.77l2,-3.17l7.59,-0.86l12.08,0.29l1.4,0l2.25,-2.88l4.5,4.6l2.25,-8.92l11,1.44l-7.97,-13.23l0,-7.2l-0.28,-6.62l-1.41,-4.6l-10,-10l0.3,0l5.51,5.32a39.93,39.93 0 0 0 0.52,-18.43c-2.55,-10.77 -1.92,-13.51 0,-27c-9.75,13.89 -6.55,22.92 -12.42,37.8l-0.75,-0.37l-23.32,0.58l-15,3.83c1.8,-1.31 0.54,-5.59 -1.79,-11.52c-4.05,-10.33 -10.7,-25.69 -21.14,-30.72z" class="cls-1"/>
    <path id="svg_4" fill="#0b151a" fill-rule="evenodd" d="m30.29,48.24l0.15,2.55l0.28,0.86c4.86,8.95 6.28,12.85 9.28,22.16l-1.12,9.5l9.53,-0.42c-2.49,-6 -3.1,-7.49 1.51,-12l2.53,0.3c5.13,0.62 1.59,5.44 -1,7.61l4.64,2l10.4,3.31l-7,-3.88c8.05,0.32 9.34,0.79 17.28,2.73l1.69,3.74l-0.16,-3.31l0.84,-4.89l-8.85,0.58l-11.29,-2.16l0.56,-2.59l0.24,-7.72l-4,-0.48c-4.3,2.11 -4,2.82 -8.15,0.58l4.92,-7.48l-3.51,3l-3.23,2c-9.45,-4.63 -9.76,-7.4 -14.89,-16.69l-0.66,0.67l0,0l0.01,0.03zm51.37,31.05c1,5.94 0.55,8.58 7.66,10.29c-5.34,1.48 -7.45,1.83 -10.19,5c-0.2,-4.8 0,-11.24 2.53,-15.32l0,0l0,0.03zm28.24,-14.71c-4.81,4 -8.29,5.82 -12.57,12.05l-2.25,1.65l-0.91,0.29l0.77,-2.81l0.63,-3.88l0.14,-0.22l0.21,-3.53c4.72,5 7,-3 14,-3.56l0,0l-0.02,0.01zm-20.58,7.88l-1.32,3.16c-2.12,2.81 -3.72,2.1 -6.81,0.72l-0.84,-0.5l-0.51,0l-2.53,-0.22c-8.16,-6.12 -7.92,-6.15 -17.42,-10.07c10.31,1.45 13.62,5.88 20.11,7.27l1.48,-2.45l0,0.43c1.8,4.99 4.07,4.53 7.84,1.66z" class="cls-2"/>
    <path id="svg_5" fill="#cc7929" fill-rule="evenodd" d="m40.63,84.74c10.44,-7.26 12.74,-2.91 23,1.44l-6.15,0.82c11.14,2.77 13.41,4 23,10.07l6.18,5.76l6.46,2.88l9,0l1.21,-0.81l5,-5.8c1.3,-5.31 2,-9.6 3.93,-14.68l-3.37,1.44c7.36,-7 8.64,-4 16.3,2l1.14,8.14l-1.12,5.47l-3.09,5.47l-2,0.86l0,6.62l-4.78,4.89l-2.81,2l1.69,5.47l-1.12,4.32l-7.31,7.77l-3.37,0l-10.65,-1.47l-6.77,0.6l-7,3.45l-6.47,-1.45l-3.09,-4.32l-3.65,-10.68l-10.61,-2l-13,-7.33c-9.37,-13.21 -10.18,-19.55 -0.55,-30.93z" class="cls-3"/>
    <path id="svg_6" fill="#d89c28" fill-rule="evenodd" d="m121.62,99.06l0.07,-3.6l-0.07,-2.66l-1.48,2.52c-1,-7.39 -0.58,-11.89 -7.45,-5.68l2.25,-0.79a43.33,43.33 0 0 0 -5.55,6.55l-0.3,-0.81l3.53,-11.22c3.09,-0.91 4.67,-0.7 6.27,0.71a12.49,12.49 0 0 1 2.72,15l0,0l0.01,-0.02zm-57.55,-13.06c-8.64,-4 -12.84,-3.59 -19,4.6c3.78,-2 3.85,-1.95 7.87,-2.88c-9.41,6 -4.84,8.7 -4.07,18.7c1.16,-8.88 -2.05,-8.94 2.53,-14.84c2.69,-3.46 6.08,-3.14 10.11,-3.14l-2.81,-1.29l5.37,-1.15l0,0zm26.25,38.14c4.71,-1.48 6.57,-1.4 10.46,-0.57c3.4,0.72 6.37,1.55 9.84,2l0.21,0.07a5.13,5.13 0 0 1 0.07,4.53c-3.66,2.23 -4.52,2.33 -8.71,3c3.24,-1.83 3.61,-1.71 5.76,-4.46l-0.42,-1.29a30.4,30.4 0 0 1 -6.6,-2.37c-4.53,-1.26 -6.07,-1.09 -10.61,-0.94l0,0l0,0.03zm-27.32,-34.65c8.57,3.22 9.13,3 13.29,6.74c3.54,3.18 10.39,9.72 4.83,13.4c-0.44,0.17 -0.64,0.4 -0.84,0.43c-6.08,-0.52 -6.27,-7.56 -6.74,-12.37l-0.7,2.45c-4.01,-7.14 -2.64,-5.14 -9.84,-10.65l0,0zm52.76,7.63c-3.05,5.73 -1.93,9.16 -4.85,14.1l1.69,-0.72c-3.13,4.72 -3.36,4.73 -8.85,5.4c3.85,0.77 7.27,2.26 10.68,-0.36c2.42,-1.86 3,-3.93 1.68,-8.06c-1.68,-5.28 -1.56,-4.99 -0.32,-10.37l-0.03,0.01z" class="cls-4"/>
    <path id="svg_7" fill="#b55e27" fill-rule="evenodd" d="m40,84.74c0.62,-0.43 7.34,-2.7 7.91,-3.05l-6.64,10.31c-2.52,8.41 -3.79,12.06 5.15,21c0,0 6.86,3.25 12.32,4a27.33,27.33 0 0 1 2.55,-11.32c-0.16,-2.94 1.58,-5.37 -0.08,-10.73c2.21,4.44 1.63,2.32 2.86,5.5c1.8,4.63 1.38,1.94 4.88,13.16c5.58,6.45 10.17,5 16.7,0.75l-2.11,3.17c5,-4.13 6.76,-4.63 3.23,-10.22l-3.36,-4.31l5.4,1.07l3.73,1.66l9,0l1.06,-0.27c-3.81,4.64 -6.26,6.95 -0.47,10.2c3.34,1.87 7.5,2.72 10.84,1.37s4.21,-3.39 5.7,-7.56c-1.26,-5.91 -3.76,-8.42 -1.4,-13.67c2.36,7.91 4.15,6.59 8.07,1.92l-0.76,3.7l-2.48,6.41l-2.4,2.17l-0.18,4.38l0,0.07l-4.74,4.85l-2.81,2l1.69,5.47l-1.12,4.32l-7.31,7.77l-3.37,0l-10.72,-1.46l-6.74,0.58l-7,3.45l-6.5,-1.43l-3.09,-4.32l-3.65,-10.68l-10,-2.07l-15.16,-8.5c-5.36,-12 -9.32,-13.46 -2.65,-25.66l3.65,-4l0,0l0,-0.03zm60.2,42.52c-3.41,0.55 -8.22,0.63 -10.68,3.31c0,3.17 8,1.25 9.9,1.08l-2,2.73c5.39,0 12.26,-1 15.45,-5.9l0,-3.88l-0.28,-1c-6,0.26 -17.36,-2.83 -21.51,-0.2a28,28 0 0 1 -18,4.23l-3.51,-0.43c1.91,5.88 2.35,6.77 8.15,8.49l-1.4,-1.87l2.68,0.46c1.69,0.3 5.62,-2.65 8.42,-4.61c4.69,-3.24 7.43,-2.94 12.78,-2.41z" class="cls-5"/>
    <path id="svg_8" fill="#fff" fill-rule="evenodd" d="m61,66.27l-0.93,5.45l1,4.75c6.21,2.74 11.34,4.93 17.14,0.29c-7.89,-8.36 -10.33,-12.07 -17.21,-10.49l0,0zm36.86,8.33c5.49,-6.14 9.46,-10.89 16,-8.63l-0.14,5.61l-0.07,3.42l-5.76,1.73l-4.35,0.43l-3.23,-0.29l-2.45,-2.27z" class="cls-6"/>
    <path id="svg_9" fill="#e0dedf" fill-rule="evenodd" d="m73.91,78.49c-8.23,-1.36 -13.12,-11.13 -4.78,-10.39l-3.48,-0.66l-1.42,-0.07l-3.08,0.07c-3,10.46 3.37,12 12.76,11.05l0,0zm39.16,-5.19l-0.14,0.37c-0.48,0.91 -0.87,1.63 -1.19,2.21l-3.81,1.19l-4.33,0.45l-3.21,-0.3l-2.39,-2.38c4.87,-2.8 3.25,-5.35 8.6,-6.79a44.57,44.57 0 0 0 -3.25,5.89c-1.35,2.33 1.94,3.78 9.72,-0.64z" class="cls-7"/>
    <path id="svg_10" fill="#eea293" fill-rule="evenodd" d="m37.84,10.16c2.59,13.89 -1.52,21.54 -1.24,28c0.39,8.88 -1,13.39 9.66,21.91l0.14,-5l0.7,0l0.47,0.41c2.88,-17.91 -1.74,-38.22 -9.75,-45.31l0,0l0.02,-0.01zm70.72,40l4.37,5.1c11.21,-11.13 9.26,-8.78 3.54,-23.33c-3.06,-7.78 -6.19,-17.7 -6.35,-25.45l-0.63,0.43l0,0.73a2,2 0 0 1 -0.12,1l-1.37,7.69l0,3.27l1,6a9,9 0 0 1 0.37,3.15l1.11,6a12.24,12.24 0 0 1 0.25,2.65l0,3.65a30.81,30.81 0 0 1 -0.25,3.15l-1.92,5.96z" class="cls-8"/>
    <path id="svg_11" fill="#111d24" fill-rule="evenodd" d="m83.57,100l-1.9,-2.52l0.7,-3.24l0.35,-0.14l4.64,-0.94l10.4,0.65l0.42,0l7.59,-1.8l0.56,-1.01a0.86,0.86 0 0 1 0.84,0.5l1.69,2.37a0.87,0.87 0 0 1 -0.21,0.65l-0.65,1.61a2.33,2.33 0 0 0 -0.42,1l-1,1.94l-0.28,0.14l-4.14,-0.14a17.38,17.38 0 0 0 -1.76,-0.22l-10.86,0c-0.49,0 -0.8,0.07 -1.19,0.07l-4.78,1.08z" class="cls-9"/>
    <path id="svg_12" fill="#33464c" fill-rule="evenodd" d="m88.64,45.38c7.79,0.32 9.71,0.2 12.31,3c1.34,1.44 2.85,3.66 5.44,7.1c5.62,5.43 -3.79,6.8 -9.31,8.38c4.56,-3.42 6.08,-4.19 2,-12.1l1.73,0.53c-3.08,-5.93 -6.27,-5.61 -12.2,-6.92l0,0l0.03,0.01zm-41.26,-24.53c4.26,7.19 6.69,11.46 9.38,19.49c1.65,4.93 2.7,4.46 -1,11.08c4.81,-1.27 4.24,-0.42 7.44,-3.88c10.52,-2.29 11.91,-0.87 20.93,2.45c-6.11,-1 -12,-2.62 -18,-0.58c-3.23,3 -4.31,3.9 -8.29,5.76l0.28,-1.58a46.76,46.76 0 0 1 -5.34,1.58c4.62,-13 -1.09,-18 -5.43,-34.32l0,0l0.03,0zm66.79,55.83c-5.69,1.88 -7.11,2.47 -13.28,1.94c4.11,1.38 3.39,1.19 7.59,1.38l-1.9,1.08c3.91,1 4.22,0.64 7.8,-0.36l3.86,1.37l-4.07,-5.4l0,0l0,-0.01zm-20.55,-10.07c0.7,3.7 1.93,7.35 0.42,10.86l-3.44,0.36c3.09,-3.82 3,-6.21 3,-11.22l0,0l0.02,0zm-10.32,7.55c6,0.56 5.82,-2.24 4.5,-7.91c-0.7,4.81 -0.21,5.39 -4.92,6l0.42,1.87l0,0l0,0.04zm-5.3,-6.62l0,-0.46c-1.82,-9.33 -13.57,-8.54 -21,-9.21c9.37,4 11.81,2.12 20.94,9.66l0,0l0.06,0.01zm18.36,12.52l4.08,4.94c2.79,4.88 4.1,5.43 -1.41,6.33c-4.53,0 -9.43,-0.13 -13.91,0.29c4.67,-1.56 7.87,-2 12.22,-3.17l0.56,-2.88l-1.54,-5.51z" class="cls-10"/>
    <path id="svg_13" fill="#d6725e" fill-rule="evenodd" d="m37.59,28.77c-0.18,18.38 -5.43,19.46 8.68,31.32l0.14,-5l1.42,-0.09c1.56,-3.09 1.48,-18.87 -4,-32.83c2.88,39.33 -5.4,28.8 -6.25,6.64l0,0l0.01,-0.04zm72.77,15.73c0.52,0.5 1.42,0.14 3.16,-1.73c3.81,-4.1 1.94,-8.15 2.29,-14.3c6.42,11.69 8.31,15.69 -2.87,26.79l-4.34,-5.06l0,0l1.76,-5.7z" class="cls-11"/>
    <path id="svg_14" fill-rule="evenodd" d="m37.63,29.33c-0.85,14.75 -1.54,22.88 7.32,27.82c-1.94,-4.92 -3,-5.24 -0.94,-10.67a13.9,13.9 0 0 0 4.13,7.44c0.42,-2.15 0.86,-4.68 0.3,-10.66c1.53,3.37 3.42,8.8 1.89,14.58l-2.68,-0.84l0.28,5c-16.76,-5.13 -14.02,-19.1 -10.3,-32.67z" class="cls-12"/>
    <path id="svg_15" fill="#cc7929" fill-rule="evenodd" d="m80.41,64.58c-1.55,-3.13 -3.15,-4.57 -1.65,-5.17c2.2,-0.88 6.22,-0.81 5.82,2.73a6.76,6.76 0 0 1 -0.13,0.67c-0.71,2.37 -2.35,5.19 -4.04,1.77z" class="cls-3"/>
    <path id="svg_16" fill="#cc7929" fill-rule="evenodd" d="m95.82,63.56c1.11,-3.12 1.65,-3.75 0.06,-4.37c-2.33,-0.9 -5.47,-1.65 -4.58,1.9c0.07,0.49 0.22,0.45 0.22,0.67c1.06,2.38 3.08,5.24 4.3,1.8z" class="cls-3"/>
    <path id="svg_17" fill-rule="evenodd" d="m80.75,58.94c-3.84,0.26 -3,2.05 -1.56,4.47c2.35,4 3.11,4 5.21,0.39c-2.57,2.17 -3.48,0.92 -4.75,-1.32c-0.93,-1.69 -1.15,-2.22 1.1,-3.54z" class="cls-12"/>
    <path id="svg_18" fill-rule="evenodd" d="m93.61,58.34c-3.95,0 -3.52,1.91 -2.12,4.32c2.35,4 3,3.89 4.75,0.28c-2.29,2.39 -3,1 -4.29,-1.22c-0.95,-1.67 -0.71,-2.52 1.66,-3.38z" class="cls-12"/>
    <g id="svg_19">
     <path id="svg_20" fill="url(#GradientFill_1)" fill-rule="evenodd" d="m101.61,70.4a4.34,4.34 0 0 0 8.68,-0.38a4.53,4.53 0 0 0 -2,-3.76c-3.23,1.14 -4.23,1.97 -6.68,4.14z" class="cls-13"/>
     <ellipse id="svg_21" ry="2.36" rx="2.28" cy="70.21" cx="105.84"/>
     <ellipse id="svg_22" fill="#fff" ry="1.31" rx="1.27" cy="68.67" cx="107.81" class="cls-14"/>
     <ellipse id="svg_23" fill="#fff" ry="1.08" rx="1.05" cy="70.57" cx="103.61" class="cls-14"/>
    </g>
    <g id="svg_24">
     <path id="svg_25" fill="url(#GradientFill_1-2)" fill-rule="evenodd" d="m75.42,71.6a5.54,5.54 0 0 1 -11.06,-0.49a5.77,5.77 0 0 1 2.51,-4.79c4.13,1.45 5.43,2.51 8.55,5.28z" class="cls-15"/>
     <ellipse id="svg_26" ry="3.01" rx="2.91" cy="71.36" cx="70.04"/>
     <ellipse id="svg_27" fill="#fff" ry="1.67" rx="1.62" cy="69.39" cx="67.52" class="cls-14"/>
     <ellipse id="svg_28" fill="#fff" ry="1.38" rx="1.34" cy="71.82" cx="72.87" class="cls-14"/>
    </g>
    <path id="svg_29" fill-rule="evenodd" d="m38.26,81.63c-5,13 -10.57,20 2.87,35.38c9.7,2.34 11.49,7.21 21.85,9.8c1.71,4.26 3.17,5.05 4.64,10.22l1.55,2.59c2.25,1.9 7.16,2.73 10.12,2.73l1,0c4,-2.14 6.39,-3.37 11,-3.88c5.3,1.63 6,2.16 11.1,2.16c3.21,0 10.08,-6.09 12.5,-8.78c2.14,-2.19 0,-7.27 -1.12,-9.5l6,-4.75l1.12,-2.88c-0.19,-1.68 0.12,-1.22 -0.07,-2.9c6.91,-7.08 7.08,-21.26 1.7,-29.43c-2,-3 -4.15,-6 -6.54,-9c0.58,-4.78 2.13,-11.79 -0.7,-16c9.83,-14.74 9.27,-16.67 1.73,-30.18c-3.41,-7.49 -3.63,-15.19 -4.53,-23.09c-0.48,-4.12 -2.17,-4.3 -5.41,0.5c-8.18,12.17 -5.29,24.72 -12.07,37.15c-13.94,-1.36 -18.82,-0.44 -32.31,1.44c-7.59,-10 -9.17,-32.92 -27.09,-39.41c-3.56,-1.29 -5.94,-1.59 -3.54,3.87l0.28,0.72c4,18.7 -1.11,19.32 -4,36.15c-0.71,4.17 0.32,7.5 4.53,15.51c5.44,9.16 6.55,10.84 5.34,21.58l0,0l0.05,0zm26.31,35.82c1.69,2.15 5,7.77 8.12,9.07a7.34,7.34 0 0 0 4.1,0.46c0.05,0.19 10.79,-5.4 17.06,-6.25c2.54,-0.34 14.52,4.36 17.61,4.36a14.62,14.62 0 0 1 0.28,5.9c-2.74,1.82 -6.78,5.24 -9.55,6.33c-1.19,0 -5.67,-0.89 -7.65,-1.22l-0.12,-0.47l3.13,-2.63a63.83,63.83 0 0 0 -18.83,6.33c-4.47,0.54 -6.61,-1.48 -9.27,-4.61c-2.5,-7.88 -3.66,-10 -9.69,-15.54l1.83,3.88c-8.31,-4.32 -10.88,-5.09 -16.47,-7.75c-2.18,-0.18 -7.51,-9.33 -8,-12c-1.46,-8.91 -0.28,-10.15 4.11,-16.6c5.64,-3.77 5.46,-5 12.17,-5.65c-5.3,-1.36 -7.33,-1.43 -12.36,1c1.96,-10.34 -0.76,-14.86 -5.31,-23.88l0,-0.72c-8.6,-16.5 5.78,-26.91 0,-48.92c7.76,6.22 10.19,18.21 12.55,30.92a47.2,47.2 0 0 0 -3.91,-24.62c7.43,10 8.48,20.37 12.38,25.54c2.13,2.82 2,7.11 -1.55,12c3.71,-0.69 5.43,-2.64 7.08,-5.68c9.59,-2.7 13.06,-0.4 22.72,2.41l-5.34,-3.88c9.72,-1.07 13.09,-2.07 22.48,1.3c3.35,3.8 6.66,8.23 10.26,11.65c1,2.07 0.72,3.35 0.42,5.61c-4.07,-1.53 -9.17,3.89 -15.45,10.22l-1.54,-5.32c-0.71,5.12 1.57,7.38 -2.48,9.1a5.92,5.92 0 0 0 4,-0.32c9.64,1.48 8.36,1.05 17.42,-1.44c1.88,2.72 3.64,5.35 5.37,8c3.14,4.87 4.28,20.73 -0.36,24.89c-2.15,-4.22 -3.32,-6.75 -3.32,-11.62c-2.55,5.23 0.2,8.86 1.26,14.1c-1.86,6 -2.56,6.85 -8.15,10.07c-5,-0.89 -9.34,-3.21 -14,-5.18q-0.14,-3.31 -0.28,-6.62a25.42,25.42 0 0 0 12.78,-10.22c2,-3 1.86,-4.73 0.64,-7.08c-1.63,-3.14 -6.06,-6.84 -8.64,-9.32c2.4,4.27 6.71,8.23 1.35,8.81c-4.69,0.51 -6.79,0.25 -12.36,0.09c-4.61,-0.13 -9.45,0.45 -9.78,3.9l-3.37,-1.85c5.1,6.7 8.7,12 16.44,15.54c0.22,7.07 -0.55,6.5 -6.32,10.5c-6.85,3.43 -8.87,5.74 -15,1.73c-4.12,-5.34 -5.55,-7 -5.58,-9.86c0,-1.95 -0.29,-3.49 -0.29,-6.54l-0.31,-3.1l-2.63,-6.39c0.36,3.59 1,5.58 0.85,7.82c-0.92,5.39 -0.54,9.31 0.35,11.85a3.35,3.35 0 0 0 0.39,0.78c0.41,0.6 0.79,1.12 0.79,1.12l0,0l-0.03,0zm45.86,-102.45c1,22.28 16.2,22.83 3.66,37.95c-1,-1.08 -3.3,-3.08 -2.32,-5.26c5.47,-12.1 -3.43,-12.76 -1.34,-32.69l0,0zm-1.92,-5.3c-5,14.51 3.39,28.68 -0.38,36.85c-3.14,-2.3 -5,-3.8 -9.25,-4.6c5.53,-8.53 4.19,-25.74 9.63,-32.26l0,0l0,0.01zm-56.51,59.3c4.52,-7.28 12,-5.32 17.6,-2.7c4.81,2.27 6.75,4.63 8.81,8.59l0.42,0c2.25,-1.44 1.91,-2.82 2.25,-5.47a10.66,10.66 0 0 1 1,5.47c3.42,2.34 4.77,2.67 6.77,2c-2.77,4 -5.63,-1.91 -9,4l-1.4,7.34l-0.7,-4.17l0.14,-2.3l0.28,-2.45c-3.76,2.32 -11.65,1.46 -15.79,-0.87c-3.4,-1.92 -3.5,-4.39 -3.18,-10.78c-3.01,-0.66 -4.2,0.34 -7.2,1.34l0,0zm9.19,-0.62c5.53,-0.92 11.93,0.11 15.57,8.53c-4.85,3.31 -18.36,3.18 -15.7,-8.1l0.13,-0.43zm40.26,59.1c-1.51,-0.06 -2.83,-0.24 -4.36,-0.29l1.05,0.65c0,1.31 -1.38,1.5 -2.76,1.54a25.24,25.24 0 0 0 -5.67,0.62l2,-1.44a1.84,1.84 0 0 1 -0.63,0.07a38,38 0 0 0 -5.27,2.08a12.32,12.32 0 0 1 15.59,-3.24l0,0l0.05,0.01zm4.95,-35.48c2.15,1.56 0.11,6.16 -0.84,6.33l0.42,-1.8c-4.87,0.94 -11.44,1.2 -16.3,0.07c-1.08,-0.13 -6,-1.39 -6,1q0,0.54 0.07,1.08l-1,-1.08c1,-2.91 3,-3.59 6.21,-3.61c5,0 8,0.69 12.36,0.36c2.36,-0.18 4,0 5.1,-2.36l0,0l-0.02,0.01zm-5.62,-16.83c2.53,-6.28 6.46,-9 10.45,-8.36c1.87,1.22 2.39,7.1 -1,8.3c-6.37,2.24 -8.23,1.43 -9.45,0.05l0,0.01z" class="cls-12"/>
    <g id="Magnify">
     <path id="svg_30" fill-rule="evenodd" d="m52.86,107.43l9.34,-0.82c2.33,0.48 4.83,5.11 1.23,7.28l-10.18,0.11l-0.39,-6.58l0,0l0,0.01zm64.27,-2.84l22,-1.94c4.5,-0.4 4.76,9.9 1.5,11.07l-22,0.56l0.07,-0.32l0,-0.83l-0.41,-2.19l-0.1,-0.42l-0.1,-2.5l-0.96,-3.43z" class="cls-12"/>
     <path id="svg_31" fill="#1a1a1a" fill-rule="evenodd" d="m138.21,103.53l-20.56,1.94l0.68,2.45l0,0.14l16.78,-0.24l-7.79,1l13.34,0.18c0.07,-3 -0.25,-4.63 -2.45,-5.47z" class="cls-16"/>
     <g id="svg_32">
      <path id="svg_33" fill="url(#Blue_GradientFill_6)" fill-rule="evenodd" d="m30.87,90.5c12,1.79 20.35,13.22 18.61,25.53a22.08,22.08 0 0 1 -24.93,19.06c-12,-1.79 -20.35,-13.22 -18.61,-25.53a22.08,22.08 0 0 1 24.93,-19.06z" class="cls-17"/>
      <path id="svg_34" fill-rule="evenodd" d="m31.5,86.06c14.41,2.14 24.4,15.85 22.31,30.61s-15.47,25 -29.89,22.85s-24.4,-15.85 -22.31,-30.61s15.47,-25 29.89,-22.85l0,0zm-0.77,5.42a21.11,21.11 0 0 0 -23.83,18.22a21.46,21.46 0 0 0 17.79,24.4a21.11,21.11 0 0 0 23.83,-18.21a21.46,21.46 0 0 0 -17.79,-24.41z" class="cls-12"/>
      <path id="svg_35" fill="#fff" fill-rule="evenodd" d="m30.49,93.21a19.86,19.86 0 0 1 -0.18,39.2a19.9,19.9 0 0 0 -3.13,-38.41a18.93,18.93 0 0 0 -5.37,0a18.83,18.83 0 0 1 8.68,-0.79z" class="cls-6"/>
      <path id="svg_36" fill="#1a1a1a" fill-rule="evenodd" d="m39.64,131.38a21.27,21.27 0 0 1 -15.45,3.69c-11.88,-1.76 -20.12,-13.07 -18.39,-25.23a22.31,22.31 0 0 1 7.88,-14.14a22.28,22.28 0 0 0 -9.18,15.14c-1.73,12.16 6.5,23.46 18.38,25.23a21.32,21.32 0 0 0 16.76,-4.69z" class="cls-16"/>
      <path id="svg_37" fill="#1a1a1a" fill-rule="evenodd" d="m31.35,87.09c13.86,2.06 23.46,15.24 21.45,29.43a26,26 0 0 1 -10.55,17.53a26,26 0 0 0 9.33,-16.6c2.02,-14.19 -7.58,-27.37 -21.44,-29.45a24.82,24.82 0 0 0 -18.19,4.44a24.86,24.86 0 0 1 19.4,-5.35z" class="cls-16"/>
     </g>
    </g>
   </g>
  </g>
 </g>
</svg>