<svg xmlns="http://www.w3.org/2000/svg" width="163" height="165" viewBox="0 0 163 165">
  <defs>
    <style>
      .cls-1 {
        fill: #f06c39;
        fill-rule: evenodd;
      }
    </style>
  </defs>
  <path id="Relleno_de_color_1" data-name="Relleno de color 1" class="cls-1" d="M70.833,2.691C183.02,0.519,188.166,144.217,92,162,36.336,172.294-14.4,112.158,5,57,16.783,23.5,36.727,13.059,70.833,2.691ZM71,9C38.566,20.008,19.926,28.073,10,62c-14.568,49.794,29.822,102.434,79,94C179.988,140.4,176.49,8.728,71,9Z"/>
  <path id="Relleno_de_color_2" data-name="Relleno de color 2" class="cls-1" d="M81.062,33.005C82.5,32.876,84.5,32.511,86,33a10.366,10.366,0,0,1,4,2c0.333,2,1.171,2.581,1,6L40,94c1.109,1.509,2.3,2.928,2,6l72,1c0.217,1.606.328,5.524,1,7,0.393,0.863,2.878-.681,3,1a85.382,85.382,0,0,1,0,11c-0.057.862-2.757,5.013-5,5-16.816-.1-69.946.063-79.137,0.023-8.4-1.649-6.68-13.054-6.863-13.023-2.8.48-6.131-1.968-8-5a15.819,15.819,0,0,1-2-8c-0.033-5.114,7.235-10.168,10.314-11.825C32.277,84.5,36.419,76.832,81.062,33.005ZM83,37C66.335,54.332,50.665,70.668,34,88c1,0.333,1,1.667,2,2L86,40C84.218,36.417,86.531,38.816,83,37ZM28,93c-1.161.407-5.56,2.088-6,6,0.04,0.39-.028,2.068,0,3,0.1,3.2,4.053,5.52,6,6a14.694,14.694,0,0,0,3,0c3.377-1.663,5.8-3.773,5.993-6,0.119-1.395-.088-2.837.007-3-0.689-1.577-2.105-4.923-6-6A14.769,14.769,0,0,0,28,93Zm13,12c-1.964.01-.847,1.773-2,3h71v-3C105.8,105.223,73.81,104.836,41,105Zm-9,8c0.015,1.223-.078,2.91.013,4.006A11.218,11.218,0,0,1,34,120c27-.333,51,0.333,78,0,0-.946,1.858-1.8,1.952-3,0.128-1.623.013-2.659,0.048-4C86.669,113.333,59.331,112.667,32,113Z"/>
  <path id="Relleno_de_color_3" data-name="Relleno de color 3" class="cls-1" d="M83,59c13.219-.2,49.378-0.581,62,0,1.994,0.092.484,4.21,1.041,5.016C144,66.666,143,66.334,141,69c0.919,0.092,2.078-.188,3,0a3.571,3.571,0,0,1,1.979.992,29.51,29.51,0,0,1,.057,3.989C144,76.666,143,76.334,141,79c1.688,0.231,4.852-.025,4.907.094C146.05,79.4,145.951,83.249,146,84c-4,4.333-7,6.667-11,11-21-.333-42,0.333-63,0-0.692-.5-2.465-2.058-2-3,1.4-2.83,3.59-4.6,5-6-1.421-.1-3.747-0.254-3.874-1.037-0.241-1.481.022-3.5-.126-3.963,1.666-2.666,3.281-3.381,5-6-2.979-.028-2.981-0.021-5,0V70Zm1,6c-1.333,1.778-2.394,3.215-3,4,13.956,0.081,51.771.023,52,0,0.26-.026,2.837-3.91,3-4H84Zm0,10c-1.333,1.666-1.667,2.334-3,4,0.759,0.019,51.718.063,52,0,0.257-.062,2.092-2.9,3-4H84Zm0,10c-0.044.146-1.607,3.242-2,4,0.77-.023,50.273.006,51,0,0.137,0,2.776-3.794,3-4H84Z"/>
</svg>
