<svg version="1.2" xmlns="http://www.w3.org/2000/svg" viewBox="0 0 683 323" width="683" height="323">
	<title>logov1</title>
	<style>
		.s0 { fill: #000000 } 
	</style>
	<path id="RAM" fill-rule="evenodd" class="s0" d="m181 224c8.1 13.4 16 24.8 24.1 34.7 14.1-6.7 16.5-20.6 18.7-26.2 5.3-14 9.6-31.8 22.2-67.5l45-122c11.9-32.7-15.7-19.7-16.9-42.4 1 0.5 50.9 2.4 50.9 2.4 10.9 22.4 40.8 108.9 60 163 12.4 34.7 22.7 60.5 26 69 2.9 7.6 6.6 12.5 11.9 17.1 11.6-7.6 10.4-14.4 14.6-20.9 6.1-17.2 4.3-189.2 4.9-195.2 1.3-12.8-36.9-36.9-24.4-34 2.4 0.6 48.6 0.6 60 1 13.5 21.9 67 175.4 76 189 14.7-38.4 51.9-130.2 75-190-0.2-1.2 55.3-3.1 50 1-12.8 10-14.1 11.5-15 29-1.6 31.8-1.1 203.9-1 196-0.1 10.6 12.2 26 17.6 28.5 10.2 4.8-83 3.3-77.6 1.5 17.6-5.9 21.9-18.5 22-30 0.6-49.6 2.6-192.5 0-184-12.2 39.5-77.8 215.5-87 214-8.3-1.4-86.4-221.7-86-210 1.7 53.6-0.9 172.3 1 172-1.1 26.1 21.9 37.2 27 38 8 1.3-59.4 3.1-70 1.7-22.6 1.2-57.7 0.8-56 0.3 6.6-1.8 17.9-11.6 16-20-3.4-15.2-26.4-68.8-26-69-5.1 0-45.7 0.4-87.3 1.4-12 26.7-18.8 60.2-18.3 67.6 0.4 6.4 6.7 18.4 13.6 21-0.8 0.4-31.5-0.2-45.3-0.4 25.5 30.4 52.6 45.4 89.3 59.4 4.3 1.6-33.1 1.1-39 0-18.6-3.3-47.4-18.6-71-38-20.9-17.2-41-44.6-46-51-3.7-4.8-42.9-79.1-45-81-2.4-2.2-29.2-1.1-35.9-1 0.3 7.6-1 82.1 0.9 86 7.6 16.1 19.2 22.4 20 23 2.3 1.9-78.6 0.5-78.1 1-2.3-1 15.6-17.2 16.1-23 1.3-13.5 3.3-170.6 1-206-1.6-24.8-3-13.8-17.3-25.9-8.2-6.8 106.8 0.6 109.3-0.1 41.9 0.5 76.7 33 76.4 69.9-0.5 55.7-56.8 67.6-57.4 68.1 0.7-0.5 42 67.1 51 82zm-179 35q-0.1 0-0.1 0 0 0 0.1 0zm57-124c18.7-0.4 35.6 2.2 45 0 42-10 43.2-44 44-61 1.2-25.3-15.3-48.9-38-56-8.4-2.6-42.5-5.8-50-5 0.8 11 0 112.1-1 122zm215.1-134.5q0 0 0 0.1-0.1-0.1 0-0.1zm26.9 48.5c-9.1 18.6-28.9 76.6-41 112 21.8 0.1 70.2-1.9 80.6-1.6 1.2 1.8-28.4-82.2-39.6-110.4z"/>
</svg>